<mxfile host="app.diagrams.net" agent="Mozilla/5.0 (Macintosh; Intel Mac OS X 10_15_7) AppleWebKit/605.1.15 (KHTML, like Gecko) Version/18.2 Safari/605.1.15" version="26.0.5">
  <diagram name="Page-1" id="EorTg1gLR0oGMwi5uA4w">
    <mxGraphModel dx="253" dy="1267" grid="1" gridSize="10" guides="1" tooltips="1" connect="1" arrows="1" fold="1" page="1" pageScale="1" pageWidth="850" pageHeight="1100" math="0" shadow="0">
      <root>
        <mxCell id="0" />
        <mxCell id="1" parent="0" />
        <mxCell id="nTKE7f52af2ux-_IrVMT-56" value="" style="group" vertex="1" connectable="0" parent="1">
          <mxGeometry x="360" y="10" width="90" height="80" as="geometry" />
        </mxCell>
        <mxCell id="nTKE7f52af2ux-_IrVMT-17" value="" style="rounded=0;whiteSpace=wrap;html=1;movable=1;resizable=1;rotatable=1;deletable=1;editable=1;locked=0;connectable=1;" vertex="1" parent="nTKE7f52af2ux-_IrVMT-56">
          <mxGeometry width="90" height="80" as="geometry" />
        </mxCell>
        <mxCell id="nTKE7f52af2ux-_IrVMT-21" value="&lt;h6&gt;&lt;p style=&quot;margin: 0px; font-weight: 400; font-stretch: normal; font-size: 4.7px; line-height: normal; font-family: Arial; font-size-adjust: none; font-kerning: auto; font-variant-alternates: normal; font-variant-ligatures: normal; font-variant-numeric: normal; font-variant-east-asian: normal; font-variant-position: normal; font-feature-settings: normal; font-optical-sizing: auto; font-variation-settings: normal; text-align: start;&quot; class=&quot;p1&quot;&gt;&lt;b&gt;Device&lt;/b&gt;&lt;/p&gt;&lt;/h6&gt;" style="rounded=0;whiteSpace=wrap;html=1;imageAspect=1;fillColor=default;strokeColor=none;movable=1;resizable=1;rotatable=1;deletable=1;editable=1;locked=0;connectable=1;" vertex="1" parent="nTKE7f52af2ux-_IrVMT-56">
          <mxGeometry width="90" height="11.428571428571427" as="geometry" />
        </mxCell>
        <mxCell id="nTKE7f52af2ux-_IrVMT-25" value="&lt;h6&gt;&lt;p style=&quot;margin: 0px; font-weight: 400; font-stretch: normal; font-size: 4.7px; line-height: normal; font-family: Arial; font-size-adjust: none; font-kerning: auto; font-variant-alternates: normal; font-variant-ligatures: normal; font-variant-numeric: normal; font-variant-east-asian: normal; font-variant-position: normal; font-feature-settings: normal; font-optical-sizing: auto; font-variation-settings: normal;&quot; class=&quot;p1&quot;&gt;&lt;u&gt;Attributes:&lt;/u&gt;&lt;/p&gt;&lt;/h6&gt;" style="rounded=0;whiteSpace=wrap;html=1;imageAspect=1;fillColor=default;strokeColor=none;movable=1;resizable=1;rotatable=1;deletable=1;editable=1;locked=0;connectable=1;align=left;" vertex="1" parent="nTKE7f52af2ux-_IrVMT-56">
          <mxGeometry y="11.428571428571427" width="90" height="11.428571428571427" as="geometry" />
        </mxCell>
        <mxCell id="nTKE7f52af2ux-_IrVMT-33" value="&lt;p style=&quot;margin: 0px; font-stretch: normal; font-size: 4.7px; line-height: normal; font-family: Arial; font-size-adjust: none; font-kerning: auto; font-variant-alternates: normal; font-variant-ligatures: normal; font-variant-numeric: normal; font-variant-east-asian: normal; font-variant-position: normal; font-feature-settings: normal; font-optical-sizing: auto; font-variation-settings: normal;&quot; class=&quot;p1&quot;&gt;ns=1;i=1000&lt;/p&gt;&lt;p style=&quot;margin: 0px; font-stretch: normal; font-size: 4.7px; line-height: normal; font-family: Arial; font-size-adjust: none; font-kerning: auto; font-variant-alternates: normal; font-variant-ligatures: normal; font-variant-numeric: normal; font-variant-east-asian: normal; font-variant-position: normal; font-feature-settings: normal; font-optical-sizing: auto; font-variation-settings: normal;&quot; class=&quot;p1&quot;&gt;Object&lt;/p&gt;&lt;p style=&quot;margin: 0px; font-stretch: normal; font-size: 4.7px; line-height: normal; font-family: Arial; font-size-adjust: none; font-kerning: auto; font-variant-alternates: normal; font-variant-ligatures: normal; font-variant-numeric: normal; font-variant-east-asian: normal; font-variant-position: normal; font-feature-settings: normal; font-optical-sizing: auto; font-variation-settings: normal;&quot; class=&quot;p1&quot;&gt;1, &quot;Device&quot;&lt;/p&gt;&lt;p style=&quot;margin: 0px; font-stretch: normal; font-size: 4.7px; line-height: normal; font-family: Arial; font-size-adjust: none; font-kerning: auto; font-variant-alternates: normal; font-variant-ligatures: normal; font-variant-numeric: normal; font-variant-east-asian: normal; font-variant-position: normal; font-feature-settings: normal; font-optical-sizing: auto; font-variation-settings: normal;&quot; class=&quot;p1&quot;&gt;&quot;&quot;,&quot;Device&quot;&lt;/p&gt;&lt;p style=&quot;margin: 0px; font-stretch: normal; font-size: 4.7px; line-height: normal; font-family: Arial; font-size-adjust: none; font-kerning: auto; font-variant-alternates: normal; font-variant-ligatures: normal; font-variant-numeric: normal; font-variant-east-asian: normal; font-variant-position: normal; font-feature-settings: normal; font-optical-sizing: auto; font-variation-settings: normal;&quot; class=&quot;p1&quot;&gt;&lt;span style=&quot;font-size: 4.7px;&quot;&gt;&quot;&quot;,&quot;&quot;&lt;/span&gt;&lt;/p&gt;&lt;p style=&quot;margin: 0px; font-stretch: normal; font-size: 4.7px; line-height: normal; font-family: Arial; font-size-adjust: none; font-kerning: auto; font-variant-alternates: normal; font-variant-ligatures: normal; font-variant-numeric: normal; font-variant-east-asian: normal; font-variant-position: normal; font-feature-settings: normal; font-optical-sizing: auto; font-variation-settings: normal;&quot; class=&quot;p1&quot;&gt;0&lt;/p&gt;&lt;p style=&quot;margin: 0px; font-stretch: normal; font-size: 4.7px; line-height: normal; font-family: Arial; font-size-adjust: none; font-kerning: auto; font-variant-alternates: normal; font-variant-ligatures: normal; font-variant-numeric: normal; font-variant-east-asian: normal; font-variant-position: normal; font-feature-settings: normal; font-optical-sizing: auto; font-variation-settings: normal;&quot; class=&quot;p1&quot;&gt;&lt;span style=&quot;font-size: 4.7px;&quot;&gt;0&lt;/span&gt;&lt;/p&gt;&lt;p style=&quot;margin: 0px; font-stretch: normal; font-size: 4.7px; line-height: normal; font-family: Arial; font-size-adjust: none; font-kerning: auto; font-variant-alternates: normal; font-variant-ligatures: normal; font-variant-numeric: normal; font-variant-east-asian: normal; font-variant-position: normal; font-feature-settings: normal; font-optical-sizing: auto; font-variation-settings: normal;&quot; class=&quot;p1&quot;&gt;None&lt;/p&gt;" style="rounded=0;whiteSpace=wrap;html=1;imageAspect=1;fillColor=default;strokeColor=none;movable=1;resizable=1;rotatable=1;deletable=1;editable=1;locked=0;connectable=1;align=left;spacing=0;" vertex="1" parent="nTKE7f52af2ux-_IrVMT-56">
          <mxGeometry x="40" y="22.86" width="50" height="57.14" as="geometry" />
        </mxCell>
        <mxCell id="nTKE7f52af2ux-_IrVMT-55" value="&lt;p style=&quot;margin: 0px; font-stretch: normal; font-size: 4.7px; line-height: normal; font-family: Arial; font-size-adjust: none; font-kerning: auto; font-variant-alternates: normal; font-variant-ligatures: normal; font-variant-numeric: normal; font-variant-east-asian: normal; font-variant-position: normal; font-feature-settings: normal; font-optical-sizing: auto; font-variation-settings: normal;&quot; class=&quot;p1&quot;&gt;NodeId :&lt;/p&gt;&lt;p style=&quot;margin: 0px; font-stretch: normal; font-size: 4.7px; line-height: normal; font-family: Arial; font-size-adjust: none; font-kerning: auto; font-variant-alternates: normal; font-variant-ligatures: normal; font-variant-numeric: normal; font-variant-east-asian: normal; font-variant-position: normal; font-feature-settings: normal; font-optical-sizing: auto; font-variation-settings: normal;&quot; class=&quot;p1&quot;&gt;NodeClass :&lt;/p&gt;&lt;p style=&quot;margin: 0px; font-stretch: normal; font-size: 4.7px; line-height: normal; font-family: Arial; font-size-adjust: none; font-kerning: auto; font-variant-alternates: normal; font-variant-ligatures: normal; font-variant-numeric: normal; font-variant-east-asian: normal; font-variant-position: normal; font-feature-settings: normal; font-optical-sizing: auto; font-variation-settings: normal;&quot; class=&quot;p1&quot;&gt;BrowseName :&lt;/p&gt;&lt;p style=&quot;margin: 0px; font-stretch: normal; font-size: 4.7px; line-height: normal; font-family: Arial; font-size-adjust: none; font-kerning: auto; font-variant-alternates: normal; font-variant-ligatures: normal; font-variant-numeric: normal; font-variant-east-asian: normal; font-variant-position: normal; font-feature-settings: normal; font-optical-sizing: auto; font-variation-settings: normal;&quot; class=&quot;p1&quot;&gt;DisplayName :&lt;/p&gt;&lt;p style=&quot;margin: 0px; font-stretch: normal; font-size: 4.7px; line-height: normal; font-family: Arial; font-size-adjust: none; font-kerning: auto; font-variant-alternates: normal; font-variant-ligatures: normal; font-variant-numeric: normal; font-variant-east-asian: normal; font-variant-position: normal; font-feature-settings: normal; font-optical-sizing: auto; font-variation-settings: normal;&quot; class=&quot;p1&quot;&gt;Description :&lt;/p&gt;&lt;p style=&quot;margin: 0px; font-stretch: normal; font-size: 4.7px; line-height: normal; font-family: Arial; font-size-adjust: none; font-kerning: auto; font-variant-alternates: normal; font-variant-ligatures: normal; font-variant-numeric: normal; font-variant-east-asian: normal; font-variant-position: normal; font-feature-settings: normal; font-optical-sizing: auto; font-variation-settings: normal;&quot; class=&quot;p1&quot;&gt;WriteMask :&lt;/p&gt;&lt;p style=&quot;margin: 0px; font-stretch: normal; font-size: 4.7px; line-height: normal; font-family: Arial; font-size-adjust: none; font-kerning: auto; font-variant-alternates: normal; font-variant-ligatures: normal; font-variant-numeric: normal; font-variant-east-asian: normal; font-variant-position: normal; font-feature-settings: normal; font-optical-sizing: auto; font-variation-settings: normal;&quot; class=&quot;p1&quot;&gt;UserWriteMask :&lt;/p&gt;&lt;p style=&quot;margin: 0px; font-stretch: normal; font-size: 4.7px; line-height: normal; font-family: Arial; font-size-adjust: none; font-kerning: auto; font-variant-alternates: normal; font-variant-ligatures: normal; font-variant-numeric: normal; font-variant-east-asian: normal; font-variant-position: normal; font-feature-settings: normal; font-optical-sizing: auto; font-variation-settings: normal;&quot; class=&quot;p1&quot;&gt;EventNotifier &amp;nbsp;:&lt;/p&gt;" style="rounded=0;whiteSpace=wrap;html=1;imageAspect=1;fillColor=default;strokeColor=none;movable=1;resizable=1;rotatable=1;deletable=1;editable=1;locked=0;connectable=1;align=left;spacing=0;" vertex="1" parent="nTKE7f52af2ux-_IrVMT-56">
          <mxGeometry y="22.86" width="40" height="57.14" as="geometry" />
        </mxCell>
      </root>
    </mxGraphModel>
  </diagram>
</mxfile>
